<svg id="Layer_1" data-name="Layer 1" xmlns="http://www.w3.org/2000/svg" viewBox="0 0 96 106.63"><defs><style>.cls-1{fill:#030000;fill-rule:evenodd;}.cls-2{stroke:#ffd530;stroke-miterlimit:10;stroke-width:1.15px;}.cls-3{fill:#fff;}.cls-4{fill:#ffd530;}</style></defs><path id="ARNG_Outline" data-name="ARNG Outline" class="cls-1" d="M48,.18H92.38A3.59,3.59,0,0,1,96,3.68V82.39a5.66,5.66,0,0,1-3.7,5.47q-11.61,5-23.17,10l-19.61,8.56a3.68,3.68,0,0,1-3.08,0L3.75,87.84A6,6,0,0,1,.09,83.32,5,5,0,0,1,0,82.38V3.83A3.56,3.56,0,0,1,3,.18H48Z" transform="translate(0 -0.17)"/><g id="ARNG_Logo" data-name="ARNG Logo"><path class="cls-2" d="M46.91,95.14,14,80.4a4.66,4.66,0,0,1-2.73-4.27V14.38A2.76,2.76,0,0,1,14,11.59H82a2.76,2.76,0,0,1,2.72,2.79V76.13A4.67,4.67,0,0,1,82,80.4L49.09,95.14A2.67,2.67,0,0,1,46.91,95.14Z" transform="translate(0 -0.17)"/><path class="cls-3" d="M70.5,67.31H67V55.11h3.72c3.4,0,5.92,1.63,5.92,6.1C76.59,65.5,73.56,67.31,70.5,67.31Zm.09-9.83H69.33v7.46H70.5c2.5,0,3.64-1.5,3.64-3.73C74.14,58.72,73.1,57.48,70.59,57.48Zm-8.75,9.83-2.13-4.39h-2.4v4.39H54.93V55.11h5.55c2.24,0,4.09,1.27,4.09,3.87a3.47,3.47,0,0,1-2.28,3.59l2.28,4.74Zm-1.41-9.83H57.31v3.14h3.12c1.1,0,1.69-.53,1.69-1.59S61.48,57.48,60.43,57.48Zm-9.78,9.83-.93-2.72H45.37l-.94,2.72H41.88l4.55-12.2h2.32l4.52,12.2Zm-2.52-7.25c-.23-.72-.47-1.45-.59-1.9-.12.45-.36,1.18-.6,1.9l-.76,2.21H48.9ZM36.05,67.5c-2.87,0-4.82-2-4.82-5.54V55.11h2.39v6.81c0,2,.92,3.19,2.43,3.19S38.5,63.91,38.5,62V55.11h2.38v6.81C40.88,65.46,39.07,67.5,36.05,67.5Zm-11.48,0c-3.11,0-5.2-2.44-5.2-6.29s2.18-6.3,5.29-6.3A4.43,4.43,0,0,1,29.16,58l-2.25,1a2.33,2.33,0,0,0-2.28-1.58c-1.79,0-2.81,1.6-2.81,3.87s1,3.9,2.82,3.9c1.63,0,2.2-.78,2.33-1.84H25.08V61h4.27v1.61A4.54,4.54,0,0,1,24.57,67.5ZM70.62,44.57h1.59v6.22h4v1.52H70.62Zm-5.76,0H66.4l3,7.74H67.67l-.62-1.72H64.14l-.62,1.72H61.81Zm.73,1.94-.9,2.61H66.5ZM54.11,44.57h1.52l2.81,4.09a10,10,0,0,1,.56.88c0-.29,0-1.26,0-1.69V44.57h1.56v7.74H59.12l-2.91-4.22c-.19-.29-.45-.67-.56-.87,0,.28,0,1.26,0,1.69v3.4H54.11Zm-4.87-.12c2.17,0,3.45,1.64,3.45,4s-1.28,4-3.45,4-3.45-1.64-3.45-4S47.07,44.45,49.24,44.45Zm0,1.54c-1.28,0-1.82,1.07-1.82,2.45S48,50.9,49.24,50.9s1.82-1.07,1.82-2.46S50.52,46,49.24,46Zm-6.67-1.42h1.59v7.74H42.57Zm-7.69,0H41V46.1H38.75v6.21H37.16V46.1H34.88Zm-4.28,0h1.54l3,7.74H33.41l-.63-1.72h-2.9l-.63,1.72H27.56Zm.73,1.94-.91,2.61h1.82ZM19.81,44.57h1.52l2.82,4.09c.19.29.45.68.55.88,0-.29,0-1.26,0-1.69V44.57h1.57v7.74H24.83l-2.92-4.22c-.19-.29-.45-.67-.55-.87,0,.28,0,1.26,0,1.69v3.4H19.81Z" transform="translate(0 -0.17)"/><path class="cls-4" d="M50.37,82.57l3.84-2.86H49.47L48,75.08l-1.46,4.63H41.8l3.83,2.86-1.46,4.62L48,84.33l3.84,2.86ZM68.23,36.81v5h2.62V36.76l5-7.72h-3l-3.27,5.53L66.29,29h-3Zm-19.37,5h2.56V37.12c0-.69,0-2.31,0-2.81.19.48.58,1.39.92,2.12L55,42.1l2.65-5.67c.34-.73.74-1.64.92-2.12,0,.5,0,2.12,0,2.81v4.69h2.62V29H58.53l-2.64,5.78c-.33.73-.71,1.66-.88,2.14-.17-.46-.56-1.43-.89-2.14L51.38,29H48.86Zm-14,0h2.62v-4.6h2.64l2.34,4.6h3l-2.5-5a3.64,3.64,0,0,0,2.5-3.76c0-2.71-2-4.05-4.51-4.05h-6.1Zm7.92-8.66c0,1.11-.66,1.66-1.87,1.66H37.49V31.52h3.43C42.08,31.52,42.79,32,42.79,33.15Zm-23,8.66h2.81l1-2.85h4.79l1,2.85h2.88L27.37,29H24.83Zm7.73-5.27h-3L26,32.24ZM76.59,26.25H19.42V25.09H76.59Zm0,44.09H19.42V71.5H76.59Z" transform="translate(0 -0.17)"/></g></svg>