<svg xmlns="http://www.w3.org/2000/svg" fill="none" height="31" viewBox="0 0 120 31" width="120" data-di-res-id="6411308b-662fcbb6" data-di-rand="1738676761306">
    <path d="M65.9391 11.7744H69.3106L64.8109 26.8035H60.6873L56.3691 11.7744H59.8055L62.8528 22.8874L65.9391 11.7744ZM101.949 11.7744L106.54 26.8035H103.104L102.351 24.2749H97.1515L96.3994 26.8035H93.0279L97.7999 11.7744H101.949ZM101.522 21.4221L99.7839 15.5349L98.0203 21.4221H101.522ZM51.1952 26.8035H54.437V11.7744H51.1692L51.1952 26.8035ZM71.2427 11.7744L71.2557 26.8035H74.4975V11.7744H71.2427ZM87.7242 11.7744L87.7372 26.8035H90.979V11.7744H87.7242ZM80.3069 11.7744H77.0391L77.0521 26.8035H85.4549V24.3008H80.2939V11.7744H80.3069ZM46.6566 11.7744H39.9784C38.8891 11.7744 38.0073 12.6561 38.0073 13.7454V24.8325C38.0073 25.9218 38.8891 26.8035 39.9784 26.8035H46.6566C47.7458 26.8035 48.6276 25.9218 48.6276 24.8325V21.8241H45.3598V23.432C45.3598 23.7043 45.1394 23.9118 44.8801 23.9118H41.8068C41.5345 23.9118 41.327 23.6914 41.327 23.432V15.1329C41.327 14.8606 41.5474 14.6531 41.8068 14.6531H45.0227C45.295 14.6531 45.3728 14.8736 45.3728 15.1329V16.7409H48.6276V13.7454C48.6276 12.6561 47.7458 11.7744 46.6566 11.7744ZM117.134 11.7744L117.147 22.9263L112.764 11.7744H108.511V26.8035H111.519V16.4297C111.597 16.8965 115.773 26.8035 115.773 26.8035H120V11.7744H117.134Z" fill="white"></path>
    <path d="M32.4184 11.7744H20.0346L16.2092 0L12.3838 11.7744H0L10.0238 19.062L6.1984 30.8364L16.2222 23.5617L26.2459 30.8364L22.4076 19.062L32.4184 11.7744ZM16.2092 19.9438L11.7484 23.1856L13.4472 17.9468L8.98638 14.705H14.4975L16.2092 9.46618L17.9079 14.705H23.4191L18.9583 17.9468L20.657 23.1856L16.2092 19.9438ZM40.5879 0L38.0073 8.61033H39.9395L40.3415 7.15799H43.3758L43.7778 8.61033H45.7489L43.2721 0H40.5879ZM40.7953 5.53707L41.8846 1.65982L42.9349 5.53707H40.7953ZM52.1936 5.05727C52.7772 4.57748 52.868 4.17549 52.868 3.33261V1.64686C52.868 0.648368 52.1288 0 51.0396 0H46.6825V8.61033H48.5498V5.65377H49.8076L51.1692 8.6233H53.244L51.7268 5.44629L52.1936 5.05727ZM50.9877 3.7346C50.9877 3.90318 50.858 4.01988 50.7024 4.01988H48.5758V1.71169H50.7024C50.871 1.71169 50.9877 1.84137 50.9877 1.99697V3.7346ZM59.6628 0H62.0877V8.61033H60.2982V3.18997L58.431 8.61033H57.8863L56.019 3.20294V8.61033H54.2944V0H56.7193L58.2105 4.70715L59.6628 0ZM70.5425 0L67.6378 5.32959V8.6233H65.7705V5.34256L62.9306 0H65.1351L66.7819 3.35855L68.4288 0H70.5425Z" fill="#FFCC01"></path>
</svg>