<svg xmlns="http://www.w3.org/2000/svg" fill="none" height="29" viewBox="0 0 120 29" width="120" data-di-res-id="44e3b32a-4e251c68" data-di-rand="1725461963862">
    
    <path d="M29.6766 10.9343H18.3401L14.8383 0L11.3365 10.9343H0L9.17601 17.702L5.67417 28.6364L14.8502 21.8807L24.0262 28.6364L20.5125 17.702L29.6766 10.9343ZM14.8383 18.5209L10.7548 21.5315L12.3099 16.6664L8.22636 13.6559H13.2714L14.8383 8.79081L16.3934 13.6559H21.4384L17.3549 16.6664L18.9099 21.5315L14.8383 18.5209Z" fill="#FFCC01"></path>
    <path d="M41.7012 10.9354H44.8232V22.0022C44.8232 23.8085 43.5768 24.9164 41.6775 24.9164H37.9382C36.0389 24.9164 34.7925 23.8205 34.7925 22.0022V10.9354H37.9501V21.4723C37.9501 21.7372 38.1281 21.942 38.413 21.942H41.2264C41.4994 21.942 41.6893 21.7372 41.6893 21.4723V10.9354H41.7012ZM45.9746 21.7132H49.0847V24.9043H45.9746V21.7132ZM50.2362 15.7041V13.5004C50.2362 12.0312 51.3046 10.9233 52.9546 10.9233H57.3348C58.9849 10.9233 60.0532 12.0192 60.0532 13.5004V15.5475H57.0143V14.247C57.0143 13.9821 56.8125 13.7773 56.5514 13.7773H53.738C53.4769 13.7773 53.2751 13.9821 53.2751 14.247V15.3308C53.2751 15.5355 53.3819 15.7402 53.6787 15.8125L58.0708 17.1492C59.6377 17.6308 60.0176 18.2089 60.0176 19.967V22.3153C60.0176 23.7724 58.9492 24.8923 57.2992 24.8923H52.9427C51.2927 24.8923 50.2243 23.7724 50.2243 22.3153V20.0513H53.2632V21.5686C53.2632 21.8336 53.465 22.0383 53.7262 22.0383H56.5395C56.8007 22.0383 57.0025 21.8336 57.0025 21.5686V20.3163C57.0025 20.1115 56.86 19.9309 56.5989 19.8466L52.2067 18.5099C50.616 18.0403 50.2362 17.4623 50.2362 15.7041ZM61.2165 21.7132H64.3267V24.9043H61.2165V21.7132ZM76.6959 22.6645H71.9713L71.3659 24.9043H68.1134L72.1969 10.9354H76.684L80.6013 24.9043H77.2894L76.6959 22.6645ZM75.948 19.8466L74.3455 13.8376L72.7311 19.8466H75.948ZM90.7982 19.1722L90.0978 19.7744L92.5313 24.9043H89.0532L86.9402 20.1597H85.1003V24.9043H81.9308V10.9354H88.9345C90.7032 10.9354 91.8903 11.9951 91.8903 13.6088V16.3785C91.9022 17.7633 91.7597 18.3775 90.7982 19.1722ZM88.7446 16.8842V14.3313C88.7446 14.0664 88.5428 13.8616 88.2816 13.8616H85.1003V17.3539H88.2816C88.5428 17.3539 88.7446 17.1492 88.7446 16.8842ZM102.574 10.9354H106.586V24.9043H103.547V16.4507L100.663 24.9043H99.7961L96.9234 16.4507V24.9043H94.0033V10.9354H98.063L100.33 18.2811L102.574 10.9354ZM120 10.9354L115.37 19.5335V24.9043H112.225V19.5456L107.714 10.9233H111.394L113.934 16.1256L116.451 10.9354H120Z" fill="white"></path>
</svg>